<?xml version="1.0" standalone="no"?>
<!DOCTYPE svg PUBLIC "-//W3C//DTD SVG 20010904//EN"
 "http://www.w3.org/TR/2001/REC-SVG-20010904/DTD/svg10.dtd">
<svg version="1.0" xmlns="http://www.w3.org/2000/svg"
 width="512.000000pt" height="512.000000pt" viewBox="0 0 512.000000 512.000000"
 preserveAspectRatio="xMidYMid meet">
<metadata>
Created by potrace 1.14, written by Peter Selinger 2001-2017
</metadata>
<g transform="translate(0.000000,512.000000) scale(0.100000,-0.100000)"
fill="#000000" stroke="none">
<path d="M2485 5107 c-17 -8 -176 -98 -355 -202 -179 -103 -340 -196 -358
-206 -133 -76 -178 -102 -262 -151 -106 -61 -677 -391 -724 -418 -419 -239
-443 -256 -465 -329 -8 -29 -11 -362 -10 -1252 0 -1208 0 -1214 21 -1257 25
-53 45 -68 228 -172 80 -46 157 -90 172 -99 23 -13 334 -193 502 -290 23 -13
73 -42 111 -64 39 -23 84 -48 100 -57 17 -9 203 -117 415 -239 685 -397 624
-365 694 -365 55 -1 69 4 146 48 47 26 103 58 125 70 22 13 243 140 490 283
248 143 556 321 685 395 129 75 249 144 267 154 47 28 250 145 308 177 161 92
196 122 214 190 9 31 11 364 9 1262 l-3 1220 -29 43 c-16 24 -53 57 -85 76
-48 29 -709 411 -811 468 -19 11 -136 79 -260 150 -291 168 -485 280 -536 310
-22 12 -132 76 -245 140 -176 101 -212 119 -259 123 -35 3 -66 0 -85 -8z m395
-605 c129 -74 316 -183 415 -240 99 -58 198 -115 220 -127 22 -12 69 -39 105
-60 36 -20 85 -49 110 -63 25 -14 61 -35 80 -47 19 -12 42 -25 50 -28 8 -4 29
-16 46 -26 48 -29 415 -242 457 -264 l37 -21 0 -1066 0 -1067 -22 -11 c-31
-15 -115 -64 -164 -94 -21 -13 -46 -28 -54 -31 -8 -4 -31 -17 -50 -28 -19 -12
-183 -107 -365 -212 -181 -104 -343 -198 -360 -208 -16 -11 -36 -22 -43 -25
-8 -4 -80 -45 -160 -92 -501 -289 -618 -355 -627 -355 -9 0 -777 438 -845 482
-14 8 -34 21 -45 27 -11 6 -128 73 -260 149 -132 76 -249 144 -260 150 -17 9
-75 42 -166 95 -14 8 -81 47 -147 85 l-122 70 0 1066 0 1067 38 19 c20 11 197
112 392 225 546 315 860 497 1150 664 l264 152 46 -25 c25 -14 151 -86 280
-161z"/>
<path d="M2836 3445 c-21 -7 -52 -26 -68 -42 -19 -18 -156 -282 -394 -758
-335 -669 -365 -734 -366 -781 -1 -171 200 -264 327 -152 29 24 110 179 401
762 336 672 365 735 366 782 0 142 -133 237 -266 189z"/>
<path d="M1569 3260 c-20 -4 -51 -16 -70 -28 -19 -11 -154 -142 -301 -289
-271 -272 -298 -306 -298 -375 0 -89 8 -99 299 -391 316 -317 350 -341 451
-315 118 32 183 160 136 272 -10 25 -82 105 -204 228 -103 104 -189 191 -191
194 -3 2 81 91 186 197 105 105 198 207 208 226 10 21 17 55 16 88 -1 124
-109 214 -232 193z"/>
<path d="M3480 3259 c-108 -20 -170 -90 -172 -194 -1 -75 30 -118 227 -314
102 -102 185 -187 185 -191 0 -3 -85 -92 -190 -197 -198 -199 -222 -231 -222
-308 0 -150 167 -247 294 -172 24 14 165 148 314 299 286 287 294 297 294 386
0 69 -27 103 -298 375 -147 147 -282 277 -300 289 -43 26 -88 36 -132 27z"/>
</g>
</svg>
