<?xml version="1.0" standalone="no"?>
<!DOCTYPE svg PUBLIC "-//W3C//DTD SVG 20010904//EN"
 "http://www.w3.org/TR/2001/REC-SVG-20010904/DTD/svg10.dtd">
<svg version="1.0" xmlns="http://www.w3.org/2000/svg"
 width="1000.000000pt" height="1000.000000pt" viewBox="0 0 1000.000000 1000.000000"
 preserveAspectRatio="xMidYMid meet">
<metadata>
Created by potrace 1.11, written by Peter Selinger 2001-2013
</metadata>
<g transform="translate(0.000000,1000.000000) scale(0.100000,-0.100000)"
fill="#000000" stroke="none">
<path d="M3130 9741 c-50 -10 -125 -50 -154 -80 -26 -28 -34 -77 -126 -776
-22 -170 -51 -393 -65 -495 -61 -456 -86 -646 -105 -790 -11 -85 -22 -164 -25
-176 -2 -11 -58 -66 -122 -121 -132 -113 -336 -319 -429 -433 -338 -415 -543
-867 -599 -1315 -19 -153 -19 -400 0 -541 55 -419 270 -869 600 -1259 l57 -67
-31 -232 c-34 -246 -79 -586 -107 -802 l-18 -132 -50 -21 c-74 -31 -178 -111
-226 -175 -140 -186 -114 -443 62 -601 24 -22 56 -49 71 -60 l27 -20 -35 -270
c-19 -148 -39 -308 -45 -355 -6 -47 -21 -170 -35 -275 -14 -104 -31 -242 -39
-305 -8 -63 -22 -175 -32 -248 l-18 -133 21 -21 c21 -21 24 -21 337 -12 296 8
317 10 335 29 17 17 24 50 40 195 20 174 48 407 79 673 l17 138 65 22 c123 42
279 148 447 302 50 47 93 85 95 85 4 0 -1 -68 -33 -455 -22 -270 -20 -347 13
-455 44 -145 149 -250 298 -299 127 -41 153 -42 860 -46 1183 -7 1891 -15
2310 -27 643 -19 1783 -16 2140 5 162 9 315 20 340 23 56 8 90 37 90 78 0 44
-11 56 -77 87 -56 27 -467 164 -683 227 -58 17 -150 45 -205 61 -213 62 -856
247 -945 271 -361 97 -531 170 -651 278 -32 30 -59 57 -59 61 0 4 23 18 51 31
91 43 178 145 212 252 3 9 31 33 61 53 70 46 156 140 193 210 l28 54 -34 68
c-70 143 -157 261 -468 631 -137 164 -243 301 -243 315 0 3 44 29 97 57 407
217 770 540 996 883 285 432 403 929 356 1494 -61 735 -314 1404 -728 1923
-90 113 -295 320 -403 408 -171 138 -402 278 -600 363 -100 43 -310 113 -371
124 -56 11 -54 23 5 29 193 20 522 13 718 -15 534 -75 997 -248 1440 -537 236
-154 501 -380 699 -595 110 -120 130 -133 169 -115 31 15 40 54 21 90 -54 102
-269 406 -405 575 -728 901 -1656 1472 -2789 1717 -111 24 -281 53 -449 77
-384 54 -1107 49 -1455 -10 -58 -10 -108 -17 -110 -14 -3 2 1 42 7 88 12 82
12 86 -12 133 -63 125 -234 204 -376 173z m224 -184 l43 -43 -13 -95 c-7 -52
-16 -125 -19 -164 -3 -38 -14 -135 -25 -215 -10 -80 -24 -185 -29 -235 -6 -49
-22 -184 -36 -300 -13 -115 -27 -235 -30 -265 -4 -30 -19 -151 -34 -269 -27
-210 -27 -214 -54 -228 -15 -7 -33 -11 -39 -7 -6 4 -9 3 -5 -2 3 -5 -33 -33
-80 -62 l-85 -53 6 28 c3 15 8 53 11 83 4 30 13 90 21 133 8 44 12 83 9 87 -3
5 -1 46 5 92 32 250 41 322 69 518 16 118 34 258 40 310 6 52 13 105 15 116 2
12 9 66 16 120 24 210 49 325 86 394 38 69 62 100 76 100 5 0 28 -19 52 -43z
m774 -284 c-10 -2 -26 -2 -35 0 -10 3 -2 5 17 5 19 0 27 -2 18 -5z m495 0
c-13 -2 -33 -2 -45 0 -13 2 -3 4 22 4 25 0 35 -2 23 -4z m-596 -9 c-3 -3 -12
-4 -19 -1 -8 3 -5 6 6 6 11 1 17 -2 13 -5z m-232 -14 c-3 -5 -23 -9 -43 -9
l-37 2 40 7 c22 4 41 8 43 9 2 0 0 -3 -3 -9z m1359 -21 c814 -116 1568 -421
2191 -887 300 -225 491 -407 834 -797 49 -55 46 -60 -9 -14 -168 142 -406 292
-665 419 -533 263 -1072 378 -1675 359 -221 -7 -342 -20 -515 -55 -104 -21
-147 -24 -331 -24 -237 0 -350 -9 -571 -46 -270 -44 -527 -116 -792 -220 -62
-25 -115 -43 -118 -40 -2 2 12 10 32 17 37 14 37 14 31 59 -11 80 -15 592 -6
680 18 161 52 303 102 423 l20 47 52 0 c51 0 363 43 441 60 102 23 567 49 750
42 50 -2 152 -12 229 -23z m-1527 -5 c-3 -3 -12 -4 -19 -1 -8 3 -5 6 6 6 11 1
17 -2 13 -5z m-50 -10 c-3 -3 -12 -4 -19 -1 -8 3 -5 6 6 6 11 1 17 -2 13 -5z
m270 -30 c-3 -3 -12 -4 -19 -1 -8 3 -5 6 6 6 11 1 17 -2 13 -5z m-370 -226
c-3 -8 -6 -5 -6 6 -1 11 2 17 5 13 3 -3 4 -12 1 -19z m-10 -80 c-3 -7 -5 -2
-5 12 0 14 2 19 5 13 2 -7 2 -19 0 -25z m-10 -70 c-3 -7 -5 -2 -5 12 0 14 2
19 5 13 2 -7 2 -19 0 -25z m-10 -70 c-3 -8 -6 -5 -6 6 -1 11 2 17 5 13 3 -3 4
-12 1 -19z m-40 -360 c-3 -7 -5 -2 -5 12 0 14 2 19 5 13 2 -7 2 -19 0 -25z
m-10 -85 c-3 -10 -5 -4 -5 12 0 17 2 24 5 18 2 -7 2 -21 0 -30z m-40 -345 c-3
-7 -5 -2 -5 12 0 14 2 19 5 13 2 -7 2 -19 0 -25z m-10 -70 c-3 -7 -5 -2 -5 12
0 14 2 19 5 13 2 -7 2 -19 0 -25z m33 -13 c0 -2 -10 -9 -22 -15 -22 -11 -22
-10 -4 4 21 17 26 19 26 11z m1502 -760 c383 -39 572 -97 774 -236 89 -62 236
-212 297 -305 39 -58 49 -83 62 -158 25 -148 14 -371 -23 -467 -11 -27 -11
-27 -114 76 -57 56 -114 106 -127 110 -16 5 -31 1 -50 -12 -49 -37 -42 -55 76
-176 229 -237 349 -473 377 -742 14 -127 -21 -265 -93 -371 -57 -84 -129 -135
-265 -189 -53 -21 -105 -47 -116 -57 -28 -26 -25 -62 10 -114 38 -54 60 -115
60 -163 0 -51 -44 -134 -93 -177 -96 -81 -219 -118 -439 -130 -165 -9 -167
-11 -150 -127 16 -111 15 -220 -2 -262 -19 -44 -50 -59 -166 -79 -52 -10 -198
-37 -325 -62 -126 -24 -264 -46 -305 -49 -148 -9 -396 -26 -450 -30 -207 -17
-204 -17 -240 2 -84 43 -119 175 -127 468 -4 169 -8 213 -21 228 -24 27 -64
21 -98 -14 -29 -31 -133 -103 -195 -135 -64 -33 -175 -65 -246 -71 -94 -8
-148 12 -202 74 -53 59 -65 99 -58 192 6 93 27 157 74 228 48 71 40 89 -61
138 -137 67 -264 208 -314 348 -30 86 -41 232 -22 321 32 155 170 334 315 408
39 19 82 38 97 42 37 8 58 32 58 65 0 42 -31 65 -78 57 -39 -6 -39 -6 -46 32
-26 158 25 426 116 605 40 79 109 183 155 233 35 38 133 114 147 114 3 0 36
19 73 42 118 72 330 166 493 217 190 60 474 117 675 134 115 10 431 5 567 -8z
m-2357 -3923 c117 -69 108 -46 86 -223 -11 -85 -27 -220 -37 -300 l-17 -146
-41 15 c-22 8 -77 22 -121 31 l-80 16 12 105 c6 58 17 152 23 210 14 136 18
158 41 262 10 48 19 91 19 94 0 3 10 0 23 -8 12 -8 54 -33 92 -56z m354 -100
c58 -38 164 -100 234 -138 l129 -69 -6 -59 c-3 -32 -6 -79 -6 -103 0 -26 -5
-45 -12 -47 -145 -42 -519 -138 -523 -134 -3 3 1 57 9 119 8 63 25 201 37 307
13 105 25 192 28 192 2 0 52 -31 110 -68z m-469 -698 c73 -16 164 -65 218
-117 18 -17 46 -58 62 -91 76 -152 3 -314 -184 -406 -246 -122 -578 -36 -682
176 -68 139 9 314 175 398 107 55 275 71 411 40z m4120 -910 c0 -14 -92 -44
-131 -42 -59 2 -98 16 -49 18 19 0 64 7 100 14 83 17 80 17 80 10z m-4115
-150 c-8 -76 -26 -229 -39 -339 -53 -437 -67 -555 -81 -683 -7 -74 -15 -135
-17 -137 -2 -1 -72 -5 -156 -7 l-153 -5 6 61 c4 34 10 93 15 131 5 39 12 97
15 130 14 151 47 446 70 610 13 99 27 221 30 270 l7 90 113 -2 c69 -1 130 3
156 12 24 7 45 12 47 10 1 -1 -5 -64 -13 -141z"/>
<path d="M5037 5869 c-107 -9 -201 -39 -276 -86 -241 -152 -362 -446 -331
-803 28 -317 95 -452 263 -531 182 -85 416 -62 678 66 259 126 422 305 460
505 18 96 16 320 -4 409 -59 262 -227 404 -522 440 -99 12 -137 12 -268 0z"/>
<path d="M3155 5710 c-33 -5 -94 -20 -134 -34 -243 -85 -362 -282 -363 -601
-1 -198 26 -310 102 -420 152 -221 548 -418 835 -416 92 1 105 3 175 36 111
53 146 81 195 155 58 87 70 123 90 267 22 152 22 333 1 445 -46 243 -203 450
-404 532 -100 41 -328 58 -497 36z"/>
<path d="M4270 4663 c-41 -15 -94 -84 -194 -254 -97 -163 -104 -203 -45 -262
l30 -30 122 7 c67 4 173 13 235 20 98 12 117 17 139 38 20 21 25 35 25 76 -1
68 -19 106 -119 254 -96 143 -134 173 -193 151z"/>
</g>
</svg>
